<?xml version="1.0" encoding="UTF-8" standalone="no"?>
<!-- Created with Inkscape (http://www.inkscape.org/) -->

<svg
   xmlns:dc="http://purl.org/dc/elements/1.1/"
   xmlns:cc="http://creativecommons.org/ns#"
   xmlns:rdf="http://www.w3.org/1999/02/22-rdf-syntax-ns#"
   xmlns:svg="http://www.w3.org/2000/svg"
   xmlns="http://www.w3.org/2000/svg"
   xmlns:sodipodi="http://sodipodi.sourceforge.net/DTD/sodipodi-0.dtd"
   xmlns:inkscape="http://www.inkscape.org/namespaces/inkscape"
   width="250"
   height="150"
   viewBox="0 0 250 149.99999"
   id="svg2"
   version="1.1"
   inkscape:version="0.92.3 (2405546, 2018-03-11)"
   sodipodi:docname="Lo.svg">
  <defs
     id="defs4" />
  <sodipodi:namedview
     id="base"
     pagecolor="#ffffff"
     bordercolor="#666666"
     borderopacity="1.0"
     inkscape:pageopacity="0.0"
     inkscape:pageshadow="2"
     inkscape:zoom="2.2185711"
     inkscape:cx="246.48866"
     inkscape:cy="140.91528"
     inkscape:document-units="px"
     inkscape:current-layer="layer2"
     showgrid="false"
     units="px"
     height="19cm"
     borderlayer="true"
     inkscape:window-width="1920"
     inkscape:window-height="1017"
     inkscape:window-x="-8"
     inkscape:window-y="-8"
     inkscape:window-maximized="1" />
  <metadata
     id="metadata7">
    <rdf:RDF>
      <cc:Work
         rdf:about="">
        <dc:format>image/svg+xml</dc:format>
        <dc:type
           rdf:resource="http://purl.org/dc/dcmitype/StillImage" />
        <dc:title />
      </cc:Work>
    </rdf:RDF>
  </metadata>
  <g
     inkscape:label="Layer 1"
     inkscape:groupmode="layer"
     id="layer1"
     transform="translate(0,-902.3627)">
    <flowRoot
       xml:space="preserve"
       id="flowRoot3340"
       style="font-style:normal;font-weight:normal;font-size:40px;line-height:125%;font-family:sans-serif;letter-spacing:0px;word-spacing:0px;fill:#000000;fill-opacity:1;stroke:none;stroke-width:1px;stroke-linecap:butt;stroke-linejoin:miter;stroke-opacity:1"
       transform="matrix(1.5998911,0,0,1.5998911,0.81099195,928.03156)"><flowRegion
         id="flowRegion3342"><rect
           id="rect3344"
           width="250.09219"
           height="150.50594"
           x="0"
           y="-0.055318154" /></flowRegion><flowPara
         id="flowPara3346">E-Learn</flowPara></flowRoot>  </g>
  <g
     inkscape:groupmode="layer"
     id="layer2"
     inkscape:label="logo">
    <circle
       style="fill:#ffff00;fill-opacity:1;stroke:#ff0000;stroke-width:1.301;stroke-miterlimit:4;stroke-dasharray:none"
       id="path4582"
       cx="122.75642"
       cy="58.379738"
       r="1.998605" />
    <g
       id="g4634"
       style="fill:#008000;stroke:#008080">
      <g
         style="fill:#008000;stroke:#008080"
         id="g4578">
        <path
           style="fill:#008000;fill-rule:evenodd;stroke:#008080;stroke-width:1px;stroke-linecap:butt;stroke-linejoin:miter;stroke-opacity:1"
           d="M 7.0099487,83.689964 V 37.010078 l 30.5888673,0.318634 0.159317,5.257462 H 13.063995 v 12.904678 h 24.534821 v 5.416779 H 13.063995 v 17.365554 h 24.534821 v 5.416779 z"
           id="path3349"
           inkscape:connector-curvature="0" />
        <path
           style="fill:#008000;fill-rule:evenodd;stroke:#008080;stroke-width:1px;stroke-linecap:butt;stroke-linejoin:miter;stroke-opacity:1"
           d="m 46.042618,60.270362 v 5.89473 h 19.436676 v -5.735413 z"
           id="path3351"
           inkscape:connector-curvature="0" />
        <path
           style="opacity:1;fill:#008000;fill-opacity:1;stroke:#008080;stroke-width:1.59317017;stroke-miterlimit:4;stroke-dasharray:none;stroke-opacity:1"
           d="M 75.547398,80.390914 C 75.494133,77.915526 75.405694,66.910703 75.350866,55.935752 l -0.09969,-19.954456 h 4.400244 4.400244 v 20.472236 20.472237 h 11.630143 11.630143 v 3.982925 3.982926 H 91.478093 75.644239 Z"
           id="path3357"
           inkscape:connector-curvature="0" />
        <path
           style="opacity:1;vector-effect:none;fill:#008000;fill-opacity:1;stroke-width:1.301;stroke-linecap:butt;stroke-linejoin:miter;stroke-miterlimit:4;stroke-dasharray:none;stroke-dashoffset:0;stroke-opacity:1;stroke:#008080"
           d="m 125.19623,84.62353 c -7.84963,-0.776272 -13.01016,-4.772404 -14.98052,-11.600403 -1.00091,-3.468494 -1.04882,-8.554747 -0.11567,-12.279405 1.62518,-6.486829 6.11241,-10.942161 12.29832,-12.210875 2.29578,-0.470859 4.97885,-0.505721 7.37363,-0.09581 5.01842,0.859002 8.61642,3.913304 10.20603,8.663791 0.74353,2.222005 0.98879,4.075804 0.99339,7.508615 l 0.003,2.445662 H 128.14155 115.3084 v 0.749125 c 0,2.385452 0.78959,5.095367 2.05468,7.051756 2.89705,4.480122 9.51606,6.040863 16.34865,3.854957 2.05872,-0.658633 4.50565,-1.829894 5.77485,-2.764226 0.35595,-0.262039 0.69508,-0.476433 0.75362,-0.476433 0.0701,0 0.0969,1.084913 0.0786,3.173752 l -0.0278,3.173752 -0.73633,0.305559 c -1.17138,0.486095 -4.63098,1.615213 -5.83803,1.905371 -0.60747,0.146028 -1.60151,0.342269 -2.20898,0.436091 -1.28052,0.197772 -4.97659,0.29072 -6.31139,0.158719 z M 135.3543,61.716727 c -0.24497,-3.210741 -1.2375,-5.453969 -3.09071,-6.985371 -2.75973,-2.280512 -8.63719,-2.469827 -12.07422,-0.388915 -1.94314,1.176459 -3.53533,3.199204 -4.30921,5.474515 -0.24588,0.722918 -0.57176,2.217023 -0.57176,2.621422 0,0.1935 0.26613,0.19876 10.05806,0.19876 h 10.05806 z"
           id="path3746"
           inkscape:connector-curvature="0" />
        <path
           style="fill:#008000;fill-opacity:1;stroke:#008080;stroke-width:1.301;stroke-miterlimit:4;stroke-dasharray:none"
           d="m 157.63011,84.813804 c -4.69338,-0.311544 -8.70151,-3.627513 -9.83165,-8.133836 -0.27827,-1.109554 -0.37367,-3.371206 -0.20032,-4.748474 0.25967,-2.062936 0.87142,-3.602826 1.99099,-5.011689 2.25735,-2.840639 6.19215,-4.521509 12.21313,-5.217215 2.45543,-0.283718 8.1972,-0.743767 9.33559,-0.747999 0.0958,-3.16e-4 0.13099,-0.2645 0.12966,-0.973494 -0.007,-3.621255 -1.85155,-5.703182 -5.62582,-6.349131 -1.50194,-0.25705 -4.68658,-0.308231 -6.25878,-0.100586 -2.34319,0.309471 -4.56505,0.832953 -6.96728,1.64152 -0.85249,0.286943 -1.62169,0.521715 -1.70933,0.521715 -0.13852,0 -0.15934,-0.38329 -0.15934,-2.93305 v -2.93305 l 0.23668,-0.05315 c 1.62404,-0.364718 4.79232,-0.966222 5.93757,-1.127258 4.24555,-0.596979 8.77885,-0.458351 12.04962,0.368476 4.20974,1.064191 6.95231,3.694976 7.86025,7.539855 0.38999,1.651536 0.42352,2.85908 0.42361,15.258506 l 8e-5,12.070523 h -2.89029 -2.89029 l -0.0287,-1.842218 -0.0287,-1.842219 -1.36746,0.958304 c -1.76251,1.235141 -2.52241,1.683262 -3.83113,2.259226 -2.5458,1.120402 -5.39324,1.594039 -8.38804,1.395246 z m 5.60242,-5.502358 c 2.05526,-0.333344 4.06911,-1.217929 6.6192,-2.907482 l 1.41761,-0.939232 v -4.939528 -4.939529 l -0.60484,0.05289 c -0.33266,0.02909 -1.8829,0.147736 -3.44497,0.263654 -6.68168,0.495835 -9.11146,1.051117 -11.2553,2.572197 -1.26961,0.900806 -1.96439,1.865061 -2.31764,3.216546 -0.27507,1.05239 -0.17284,3.271701 0.19473,4.227466 0.7631,1.984234 2.3029,3.052296 5.01563,3.479044 0.70335,0.110647 3.50226,0.05562 4.37558,-0.08603 z"
           id="path4555"
           inkscape:connector-curvature="0" />
        <path
           style="fill:#008000;fill-opacity:1;stroke:#008080;stroke-width:1.301;stroke-miterlimit:4;stroke-dasharray:none"
           d="M 188.49314,66.476563 V 49.067661 h 2.89271 2.89272 v 2.577149 c 0,1.417431 0.0259,2.577148 0.0577,2.577148 0.0317,0 0.5223,-0.351864 1.09017,-0.781919 3.15111,-2.386362 5.60363,-3.607076 8.27046,-4.116537 1.46445,-0.279762 4.82649,-0.20939 6.22868,0.130375 l 0.23667,0.05735 v 2.933909 c 0,2.725333 -0.0131,2.933675 -0.18408,2.930603 -0.10124,-0.0018 -0.70477,-0.09797 -1.34117,-0.213672 -0.74585,-0.1356 -1.8674,-0.232304 -3.15569,-0.272094 -2.21179,-0.06831 -3.27869,0.05406 -4.77574,0.547775 -1.62333,0.535365 -4.29765,2.034152 -5.87472,3.292413 l -0.55225,0.440607 v 12.357348 12.357349 h -2.89272 -2.89271 z"
           id="path4563"
           inkscape:connector-curvature="0" />
        <path
           style="fill:#008000;fill-opacity:1;stroke:#008080;stroke-width:1.301;stroke-miterlimit:4;stroke-dasharray:none"
           d="M 215.84247,66.476563 V 49.067661 h 2.89272 2.89271 v 1.94601 c 0,1.070306 0.0288,1.94601 0.064,1.94601 0.0352,0 0.3547,-0.231002 0.71003,-0.513338 1.71602,-1.363507 4.30422,-2.813868 6.20129,-3.475052 1.65054,-0.575258 2.87185,-0.776675 4.75336,-0.783923 2.48436,-0.0096 4.09554,0.321179 5.84523,1.199926 1.37736,0.691752 2.29628,1.470319 3.27102,2.771408 1.06774,1.425225 1.77211,3.167397 2.21585,5.480643 0.21689,1.130691 0.22315,1.458072 0.26191,13.702244 l 0.0397,12.543876 h -2.8919 -2.89189 l -0.0404,-11.439384 c -0.0434,-12.287815 -0.0526,-12.509447 -0.60438,-14.52064 -0.80204,-2.923446 -2.8504,-4.235253 -6.63185,-4.247151 -2.13688,-0.0067 -3.75756,0.41923 -6.14697,1.61557 -1.21865,0.610156 -2.94413,1.67307 -3.76053,2.316521 l -0.39447,0.310896 v 12.982094 12.982094 h -2.89271 -2.89272 z"
           id="path4565"
           inkscape:connector-curvature="0" />
      </g>
      <circle
         style="fill:#008000;fill-opacity:1;stroke:#008080;stroke-width:1.301;stroke-miterlimit:4;stroke-dasharray:none"
         id="circle4584"
         cx="122.75642"
         cy="58.379738"
         r="1.998605" />
      <circle
         style="fill:#008000;fill-opacity:1;stroke:#008080;stroke-width:1.301;stroke-miterlimit:4;stroke-dasharray:none"
         id="circle4584-0"
         cx="129.59377"
         cy="58.484928"
         r="1.998605" />
    </g>
  </g>
</svg>
